<svg width="32" height="384" viewBox="0 0 32 384" xmlns="http://www.w3.org/2000/svg"
     xmlns:xlink="http://www.w3.org/1999/xlink">
    <svg width="32" height="32" viewBox="0 0 32 32" id="bishop_B" xmlns="http://www.w3.org/2000/svg">
        <g transform="translate(-236.846 195.371)">
            <path fill="#1a1a1a" fill-rule="evenodd"
                  d="M249.783-187.573c-2.437-2.765.563-4.765 3.016-7.141 2.547 2.376 5.547 4.376 3.015 7.141"/>
            <path fill="#2f2f2f" fill-rule="evenodd"
                  d="M252.747-194.338c-1.401 2-2.859 4-2.401 6h1c-.536-2 .247-4 1.401-6z"/>
            <path fill="#1a1a1a" fill-rule="evenodd"
                  d="M255.85-188.02c-.083 6.794.543 12.688 2.024 18.149h-10.01c1.482-5.46 2.075-11.355 1.994-18.148z"/>
            <path fill="#0f1211" fill-rule="evenodd"
                  d="M255.85-187.83c-.083 6.794.543 12.498 2.024 17.959h-10.01c6.265-1.679 7.985-2.259 7.985-17.958z"/>
            <path fill="#0a0a0a" stroke="#000" stroke-linecap="round"
                  d="M245.471-166.832c-.901 0-1.625.615-1.625 1.38v.235l.002.026h-.002v1.353h18v-1.353h-.002l.002-.026v-.236c0-.764-.724-1.379-1.626-1.379h-14.749z"
                  color="#000" overflow="visible" style="isolation:auto;mix-blend-mode:normal"/>
            <path fill="none" stroke="#4d4d4d" d="M248.97-169.871c1.482-5.46 1.948-11.14 1.867-17.933" opacity=".421"/>
            <path fill="#2f2f2f" fill-rule="evenodd"
                  d="M246.948-166.345h2c-.33.366-.446.718-.46 1.06-.012.334.015.5.015.94h-2.073c0-.578-.015-.68-.005-1.02.009-.327.184-.653.524-.98z"/>
            <rect width="13.832" height="3" x="245.963" y="-169.832" fill="#333" stroke="#000" rx="1.5" ry="1.5"/>
            <path fill="#fff" fill-rule="evenodd"
                  d="M247.934-169.332h2c-.642.711-.587 1.374 0 2h-2c-.706-.667-.693-1.333 0-2zm2.717 0h.713c-.642.711-.587 1.374 0 2h-.713c-.706-.667-.693-1.333 0-2z"
                  opacity=".11"/>
            <path fill="#2f2f2f" fill-rule="evenodd"
                  d="M249.697-166.345h.777c-.33.366-.446.718-.46 1.06-.013.334.014.5.014.94h-.85c0-.578-.014-.68-.005-1.02.01-.327.185-.653.525-.98z"/>
            <path fill="#0f1211" fill-rule="evenodd"
                  d="M258.022-169.332h-1.102c.642.711.587 1.374 0 2h1.102c.705-.667.692-1.333 0-2z"/>
            <path fill="#2f2f2f" fill-rule="evenodd"
                  d="M259.635-166.345h-1.371c.33.366.446.718.46 1.06.013.334-.014.5-.014.94h1.444c0-.578.014-.68.005-1.02-.01-.327-.185-.653-.524-.98z"/>
            <path fill="#0f1211" d="M249.955-185.323h5.781v1h-5.781z"/>
            <path fill="none" stroke="#000"
                  d="M255.85-187.782c-.092 7.538.543 12.45 2.024 17.911h-10.01c1.482-5.46 2.084-10.373 1.994-17.91"/>
            <rect width="10" height="2" x="247.846" y="-187.838" fill="#333" stroke="#000" rx="1.13" ry="1"/>
            <path fill="#fff" fill-rule="evenodd"
                  d="M250.358-187.338h1c-.321.356-.293.687 0 1h-1c-.353-.333-.346-.666 0-1z" opacity=".11"/>
            <path fill="#0f1211" fill-rule="evenodd"
                  d="M256.083-187.338h-1c.321.356.294.687 0 1h1c.353-.333.347-.666 0-1z"/>
            <path fill="none" stroke="#000" stroke-linecap="round" stroke-linejoin="round"
                  d="M249.576-188.012c-2.05-2.637.844-4.588 3.223-6.892 2.442 2.28 5.302 4.212 3.299 6.806"/>
            <path fill="#fff" fill-rule="evenodd"
                  style="line-height:normal;text-indent:0;text-align:start;text-decoration-line:none;text-decoration-style:solid;text-decoration-color:#000;text-transform:none;block-progression:tb;isolation:auto;mix-blend-mode:normal"
                  d="M249.861-187.643c-.146.146-.612.306-.612.306s.469.163.612.307c.144.143.306.606.306.606s.163-.463.306-.606c.144-.144.613-.307.613-.307s-.467-.16-.613-.306c-.146-.146-.306-.626-.306-.626s-.16.48-.306.626z"
                  color="#000" font-family="sans-serif" font-weight="400" overflow="visible"/>
        </g>
    </svg>
    <svg width="32" height="32" viewBox="0 0 32 32" id="bishop_W" y="32" xmlns="http://www.w3.org/2000/svg">
        <g transform="translate(-236.846 235.951)">
            <path fill="#cdd7e0" fill-rule="evenodd"
                  d="M249.783-228.153c-2.437-2.765.563-4.765 3.016-7.141 2.547 2.376 5.547 4.376 3.015 7.141"/>
            <path fill="none" stroke="#12141a" stroke-linecap="round" stroke-linejoin="round"
                  d="M249.576-228.592c-2.05-2.637.844-4.588 3.223-6.892 2.442 2.28 5.302 4.212 3.299 6.806"/>
            <path fill="#e1e7f0" fill-rule="evenodd"
                  d="M252.747-234.918c-1.401 2-2.859 4-2.401 6h1c-.536-2 .247-4 1.401-6z"/>
            <path fill="#cdd7e0" fill-rule="evenodd"
                  d="M255.85-228.6c-.083 6.794.543 12.688 2.024 18.149h-10.01c1.482-5.46 2.075-11.355 1.994-18.148z"/>
            <path fill="#92a3b3" fill-rule="evenodd"
                  d="M255.85-228.41c-.083 6.794.543 12.498 2.024 17.959h-10.01c6.265-1.679 7.985-2.259 7.985-17.958z"/>
            <path fill="#1b1e34" stroke="#12141a" stroke-linecap="round" style="isolation:auto;mix-blend-mode:normal"
                  d="M245.471-207.412c-.901 0-1.625.615-1.625 1.38v.235l.002.026h-.002v1.353h18v-1.353h-.002l.002-.026v-.236c0-.764-.724-1.379-1.626-1.379h-14.749z"
                  color="#000" overflow="visible"/>
            <path fill="#2e303e" fill-rule="evenodd"
                  d="M246.948-206.925h2c-.33.366-.446.718-.46 1.06-.012.334.015.5.015.94h-2.073c0-.578-.015-.68-.005-1.02.009-.327.184-.653.524-.98z"/>
            <rect width="13.832" height="3" x="245.963" y="-210.412" fill="#cdd7e0" stroke="#12141a" rx="1.5" ry="1.5"/>
            <path fill="#fff" fill-rule="evenodd"
                  d="M247.934-209.912h2c-.642.711-.587 1.374 0 2h-2c-.706-.667-.693-1.333 0-2zm2.717 0h.713c-.642.711-.587 1.374 0 2h-.713c-.706-.667-.693-1.333 0-2z"
                  opacity=".35"/>
            <path fill="#24273b" fill-rule="evenodd"
                  d="M249.697-206.925h.777c-.33.366-.446.718-.46 1.06-.013.334.014.5.014.94h-.85c0-.578-.014-.68-.005-1.02.01-.327.185-.653.525-.98z"/>
            <path fill="#92a3b3" fill-rule="evenodd"
                  d="M258.022-209.912h-1.102c.642.711.587 1.374 0 2h1.102c.705-.667.692-1.333 0-2z"/>
            <path fill="#16192b" fill-rule="evenodd"
                  d="M259.635-206.925h-1.371c.33.366.446.718.46 1.06.013.334-.014.5-.014.94h1.444c0-.578.014-.68.005-1.02-.01-.327-.185-.653-.524-.98z"/>
            <rect width="5.781" height="1" x="249.955" y="-225.903" fill="#92a3b3" rx="0" ry="0"/>
            <path fill="none" stroke="#dce4ea" d="M248.97-210.451c1.482-5.46 1.948-11.14 1.867-17.933" opacity=".6"/>
            <path fill="none" stroke="#12141a"
                  d="M255.85-228.362c-.092 7.538.543 12.45 2.024 17.911h-10.01c1.482-5.46 2.084-10.373 1.994-17.91"/>
            <rect width="10" height="2" x="247.846" y="-228.418" fill="#cdd7e0" stroke="#12141a" rx="1.13" ry="1"/>
            <path fill="#fff" fill-rule="evenodd"
                  d="M250.358-227.918h1c-.321.356-.293.687 0 1h-1c-.353-.333-.346-.666 0-1z" opacity=".35"/>
            <path fill="#92a3b3" fill-rule="evenodd"
                  d="M256.083-227.918h-1c.321.356.294.687 0 1h1c.353-.333.347-.666 0-1z"/>
            <path fill="#fff" fill-rule="evenodd"
                  d="M249.861-228.223c-.146.146-.612.306-.612.306s.469.163.612.307c.144.143.306.606.306.606s.163-.463.306-.606c.144-.144.613-.307.613-.307s-.467-.16-.613-.306c-.146-.146-.306-.626-.306-.626s-.16.48-.306.626z"
                  color="#000" font-family="sans-serif" font-weight="400" overflow="visible"
                  style="line-height:normal;text-indent:0;text-align:start;text-decoration-line:none;text-decoration-style:solid;text-decoration-color:#000;text-transform:none;block-progression:tb;isolation:auto;mix-blend-mode:normal"/>
        </g>
    </svg>
    <svg width="32" height="32" viewBox="0 0 32 32" id="king_B" y="64" xmlns="http://www.w3.org/2000/svg">
        <g transform="translate(-174 195.335)">
            <path fill="#1a1a1a" fill-rule="evenodd"
                  d="M193.003-187.83c-.081 6.794.544 12.498 2.026 17.959h-10.01c1.481-5.46 2.075-11.165 1.993-17.958z"/>
            <path fill="#0f1211" fill-rule="evenodd"
                  d="M193.003-187.83c-.081 6.794.544 12.498 2.026 17.959h-10.01c6.264-1.679 7.984-2.259 7.984-17.958z"/>
            <path fill="none" stroke="#000"
                  d="M193.003-187.83c-.081 6.794.544 12.498 2.026 17.959h-10.01c1.481-5.46 2.075-11.165 1.993-17.958z"/>
            <path fill="#1a1a1a" fill-rule="evenodd" d="M187.18-187.963l-1.053-2.354 4-1.831 3.73 1.831-1.069 2.417"/>
            <path fill="#4d4d4d" fill-rule="evenodd"
                  d="M187.457-187.963l-1.052-2.354 3.873-1.474c-1.627 1.627-2.26 1.737-2.82 3.828z" opacity=".42"/>
            <path fill="#0a0a0a" stroke="#000" stroke-linecap="round"
                  d="M182.625-166.832c-.901 0-1.625.615-1.625 1.38v.235l.002.026H181v1.353h18v-1.353h-.002l.002-.026v-.236c0-.764-.724-1.379-1.625-1.379h-14.75z"
                  color="#000" overflow="visible" style="isolation:auto;mix-blend-mode:normal"/>
            <rect width="5" height="1" x="187.5" y="-185.317" fill="#0f1211" rx="0" ry="0"/>
            <path fill="none" stroke="#4d4d4d" d="M186.123-169.871c1.482-5.46 1.949-11.165 1.867-17.958"
                  opacity=".421"/>
            <rect width="10" height="2" x="185" y="-187.832" fill="#333" stroke="#000" rx="1.13" ry="1"/>
            <path fill="none" stroke="#000" d="M190.09-192.317v-3.015m-1.5 1.523h3"/>
            <path fill="#2f2f2f" fill-rule="evenodd"
                  d="M184.103-166.345h2c-.33.366-.446.718-.46 1.06-.013.334.014.5.014.94h-2.073c0-.578-.014-.68-.005-1.02.009-.327.185-.653.524-.98z"/>
            <rect width="13.832" height="3" x="183.118" y="-169.832" fill="#333" stroke="#000" rx="1.5" ry="1.5"/>
            <path fill="#fff" fill-rule="evenodd"
                  d="M185.088-169.332h2c-.642.711-.586 1.374 0 2h-2c-.706-.667-.693-1.333 0-2zm2.424-18h1c-.32.356-.293.687 0 1h-1c-.352-.333-.346-.667 0-1z"
                  opacity=".11"/>
            <path fill="none" stroke="#000" d="M187.18-187.963l-1.053-2.354 4-1.831 3.73 1.831-1.069 2.417"/>
            <path fill="#fff" fill-rule="evenodd"
                  d="M187.805-169.332h.713c-.642.711-.586 1.374 0 2h-.713c-.706-.667-.693-1.333 0-2z" opacity=".11"/>
            <path fill="#2f2f2f" fill-rule="evenodd"
                  d="M186.852-166.345h.776c-.33.366-.446.718-.46 1.06-.013.334.014.5.014.94h-.85c0-.578-.013-.68-.004-1.02.009-.327.185-.653.524-.98z"/>
            <path fill="#0f1211" fill-rule="evenodd"
                  d="M195.176-169.332h-1.101c.642.711.586 1.374 0 2h1.101c.706-.667.693-1.333 0-2z"/>
            <path fill="#2f2f2f" fill-rule="evenodd"
                  d="M196.79-166.345h-1.372c.33.366.447.718.46 1.06.013.334-.014.5-.014.94h1.444c0-.578.014-.68.005-1.02-.009-.327-.185-.653-.524-.98z"/>
            <path fill="#fff" fill-rule="evenodd"
                  d="M187.288-187.628c-.146.146-.612.306-.612.306s.468.163.612.306c.143.144.306.607.306.607s.162-.463.306-.607c.144-.143.612-.306.612-.306s-.466-.16-.612-.306c-.146-.146-.306-.626-.306-.626s-.16.48-.306.626z"
                  color="#000" font-family="sans-serif" font-weight="400" overflow="visible"
                  style="line-height:normal;text-indent:0;text-align:start;text-decoration-line:none;text-decoration-style:solid;text-decoration-color:#000;text-transform:none;block-progression:tb;isolation:auto;mix-blend-mode:normal"/>
            <path fill="#0f1211" fill-rule="evenodd"
                  d="M193.012-187.332h-1c.321.356.293.687 0 1h1c.353-.333.347-.667 0-1z"/>
        </g>
    </svg>
    <svg width="32" height="32" viewBox="0 0 32 32" id="king_W" y="96" xmlns="http://www.w3.org/2000/svg">
        <g transform="translate(-174 235.915)">
            <path fill="#cdd7e0" fill-rule="evenodd"
                  d="M193.003-228.41c-.081 6.794.544 12.498 2.026 17.959h-10.01c1.481-5.46 2.075-11.165 1.993-17.958z"/>
            <path fill="#92a3b3" fill-rule="evenodd"
                  d="M193.003-228.41c-.081 6.794.544 12.498 2.026 17.959h-10.01c6.264-1.679 7.984-2.259 7.984-17.958z"/>
            <path fill="none" stroke="#12141a"
                  d="M193.003-228.41c-.081 6.794.544 12.498 2.026 17.959h-10.01c1.481-5.46 2.075-11.165 1.993-17.958z"/>
            <path fill="#cdd7e0" fill-rule="evenodd" d="M187.18-228.543l-1.053-2.354 4-1.831 3.73 1.831-1.069 2.417"/>
            <path fill="#dce4ea" fill-rule="evenodd"
                  d="M187.457-228.543l-1.052-2.354 3.873-1.474c-1.627 1.627-2.26 1.737-2.82 3.828z"/>
            <path fill="#1b1e34" stroke="#12141a" stroke-linecap="round" style="isolation:auto;mix-blend-mode:normal"
                  d="M182.625-207.412c-.901 0-1.625.615-1.625 1.38v.235l.002.026H181v1.353h18v-1.353h-.002l.002-.026v-.236c0-.764-.724-1.379-1.625-1.379h-14.75z"
                  color="#000" overflow="visible"/>
            <rect width="5" height="1" x="187.5" y="-225.897" fill="#92a3b3" rx="0" ry="0"/>
            <path fill="none" stroke="#dce4ea" d="M186.123-210.451c1.482-5.46 1.949-11.165 1.867-17.958" opacity=".6"/>
            <rect width="10" height="2" x="185" y="-228.412" fill="#cdd7e0" stroke="#12141a" rx="1.13" ry="1"/>
            <path fill="none" stroke="#12141a" d="M190.09-232.897v-3.015m-1.5 1.523h3"/>
            <path fill="#2e303e" fill-rule="evenodd"
                  d="M184.103-206.925h2c-.33.366-.446.718-.46 1.06-.013.334.014.5.014.94h-2.073c0-.578-.014-.68-.005-1.02.009-.327.185-.653.524-.98z"/>
            <rect width="13.832" height="3" x="183.118" y="-210.412" fill="#cdd7e0" stroke="#12141a" rx="1.5" ry="1.5"/>
            <path fill="#fff" fill-rule="evenodd"
                  d="M185.088-209.912h2c-.642.711-.586 1.374 0 2h-2c-.706-.667-.693-1.333 0-2z" opacity=".335"/>
            <path fill="#fff" fill-rule="evenodd"
                  d="M187.512-227.912h1c-.32.356-.293.687 0 1h-1c-.352-.333-.346-.667 0-1z" opacity=".6"/>
            <path fill="none" stroke="#12141a" d="M187.18-228.543l-1.053-2.354 4-1.831 3.73 1.831-1.069 2.417"/>
            <path fill="#fff" fill-rule="evenodd"
                  d="M187.805-209.912h.713c-.642.711-.586 1.374 0 2h-.713c-.706-.667-.693-1.333 0-2z" opacity=".335"/>
            <path fill="#24273b" fill-rule="evenodd"
                  d="M186.852-206.925h.776c-.33.366-.446.718-.46 1.06-.013.334.014.5.014.94h-.85c0-.578-.013-.68-.004-1.02.009-.327.185-.653.524-.98z"/>
            <path fill="#92a3b3" fill-rule="evenodd"
                  d="M195.176-209.912h-1.101c.642.711.586 1.374 0 2h1.101c.706-.667.693-1.333 0-2z"/>
            <path fill="#16192b" fill-rule="evenodd"
                  d="M196.79-206.925h-1.372c.33.366.447.718.46 1.06.013.334-.014.5-.014.94h1.444c0-.578.014-.68.005-1.02-.009-.327-.185-.653-.524-.98z"/>
            <path fill="#fff" fill-rule="evenodd"
                  style="line-height:normal;text-indent:0;text-align:start;text-decoration-line:none;text-decoration-style:solid;text-decoration-color:#000;text-transform:none;block-progression:tb;isolation:auto;mix-blend-mode:normal"
                  d="M186.867-228.33c-.146.146-.613.306-.613.306s.469.163.613.306c.143.144.306.606.306.606s.162-.462.306-.606c.144-.143.612-.306.612-.306s-.466-.16-.612-.306c-.146-.146-.306-.627-.306-.627s-.16.48-.306.627z"
                  color="#000" font-family="sans-serif" font-weight="400" overflow="visible"/>
            <path fill="#92a3b3" fill-rule="evenodd"
                  d="M192.738-227.912h-1c.32.356.293.687 0 1h1c.353-.333.346-.667 0-1z"/>
        </g>
    </svg>
    <svg width="32" height="32" viewBox="0 0 32 32" id="knight_B" y="128" xmlns="http://www.w3.org/2000/svg">
        <g transform="translate(-278.36 195.338)">
            <path fill="#0f1211" d="M298.369-192.305c4.456 3.934 6.941 12.416 5.564 19.467l-3.042.008"/>
            <path fill="#1a1a1a" fill-rule="evenodd"
                  d="M295.776-192.755c-.884 1.229-2.343 1.951-3.894 1.93-.582 1.514-2.096 2.654-3.988 3-1.42.106-2.596 1.034-2.923 2.3-.327 1.267.269 2.584 1.476 3.26 1.207.676 2.749.557 3.817-.294l-.358-.358c2.165 1.192 5.162.892 6.858-.686l-.722.59c-.985 1.275-1.048 2.31-4.657 3.219-3.609.909-4.972 4.818-4.244 7.986l1.757-.005v2.983h9.003l-.001-3.006 2.161-.003c2.83-6.198 2.34-13.677-1.163-18.985"/>
            <path fill="none" stroke="#000" stroke-linecap="round" stroke-linejoin="round"
                  d="M288.412-184.32a15.767 11.001 0 01-2.506 1.487m7.355-4.997h1"/>
            <path fill="#0f1211" fill-rule="evenodd"
                  style="line-height:normal;text-indent:0;text-align:start;text-decoration-line:none;text-decoration-style:solid;text-decoration-color:#000;text-transform:none;block-progression:tb;isolation:auto;mix-blend-mode:normal"
                  d="M289.4-171.338v1h8v-1h-8z" color="#000" font-family="sans-serif" font-weight="400"
                  overflow="visible"/>
            <path fill="#0f1211" fill-rule="evenodd"
                  d="M294.336-171.813l3.564-.023 2.161-.003c2.83-6.198 2.34-13.677-1.163-18.985 3.881 14.486-4.562 19.011-4.562 19.011z"/>
            <path fill="none" stroke="#000" stroke-linecap="round" stroke-linejoin="round"
                  d="M298.369-192.305c4.456 3.934 6.941 12.416 5.564 19.467l-3.042.008"/>
            <path fill="#4d4d4d" fill-rule="evenodd"
                  d="M297.228-183.603l-1.186.59c-.985 1.275-1.048 2.31-4.657 3.219-3.609.909-4.972 4.818-4.244 7.986l3.288-.005c.97-7.525 5.97-5.525 6.799-11.79zm-1.452-9.152c-.884 1.229-2.343 1.951-3.894 1.93-.582 1.514-2.096 2.654-3.988 3-1.42.106-2.596 1.034-2.923 2.3-.148.574-.014 1.618.43 2.195.494-4.008 10.998-4.454 10.375-9.425z"
                  opacity=".421"/>
            <path fill="none" stroke="#000" stroke-linecap="round" stroke-linejoin="round"
                  d="M295.776-192.755c-.884 1.229-2.343 1.951-3.894 1.93-.582 1.514-2.096 2.654-3.988 3-1.42.106-2.596 1.034-2.923 2.3-.327 1.267.269 2.584 1.476 3.26 1.207.676 2.749.557 3.817-.294l-.358-.358c2.165 1.192 5.162.892 6.858-.686l-.722.59c-.985 1.275-1.048 2.31-4.657 3.219-3.609.909-4.972 4.791-4.244 7.959l1.757-.005v3.01h9.003l-.001-3.006 2.161-.003c2.83-6.198 2.34-13.677-1.163-18.985z"/>
            <path fill="none" stroke="#12141a" d="M288.4-171.838h10"/>
            <path fill="#1a1a1a"
                  d="M298.747-188.833c.687-2.642-.983-5.32-3.82-6.005.3.355.636 1.043.824 1.845.189.801.206 1.611.045 2.158"/>
            <path fill="#0f1211" d="M298.747-188.552c.687-2.642-.983-5.6-3.82-6.286.3.355 2.98 2.059 3.356 5.954"/>
            <path fill="#2f2f2f" d="M296.034-190.412c1.171-.434.997-2.508-.527-4.035.193.424.483 1.15.256 4.105z"
                  opacity=".421"/>
            <path fill="none" stroke="#000" stroke-linecap="round" stroke-linejoin="round"
                  d="M298.747-188.833c.687-2.642-.983-5.32-3.82-6.005.3.355.636 1.043.824 1.845.189.801.206 1.611.045 2.158"/>
            <path fill="#0a0a0a" stroke="#000" stroke-linecap="round" style="isolation:auto;mix-blend-mode:normal"
                  d="M286.025-166.832c-.902 0-1.626.615-1.626 1.38v.235l.002.026h-.002v1.353h18v-1.353h-.002l.002-.026v-.236c0-.764-.723-1.379-1.625-1.379h-14.75z"
                  color="#000" overflow="visible"/>
            <path fill="#2f2f2f" fill-rule="evenodd"
                  d="M287.502-166.345h2c-.33.366-.446.718-.46 1.06-.013.334.014.5.014.94h-2.073c0-.578-.014-.68-.005-1.02.01-.327.185-.653.524-.98z"/>
            <rect width="13.832" height="3" x="286.517" y="-169.832" fill="#333" stroke="#000" rx="1.5" ry="1.5"/>
            <path fill="#fff" fill-rule="evenodd"
                  d="M288.488-169.332h2c-.642.711-.587 1.374 0 2h-2c-.706-.667-.693-1.333 0-2zm2.716 0h.713c-.641.711-.586 1.374 0 2h-.712c-.706-.667-.693-1.333 0-2z"
                  opacity=".11"/>
            <path fill="#2f2f2f" fill-rule="evenodd"
                  d="M290.251-166.345h.777c-.33.366-.446.718-.46 1.06-.013.334.014.5.014.94h-.85c0-.578-.014-.68-.005-1.02.01-.327.185-.653.524-.98z"/>
            <path fill="#0f1211" fill-rule="evenodd"
                  d="M298.575-169.332h-1.1c.641.711.586 1.374 0 2h1.1c.706-.667.693-1.333 0-2z"/>
            <path fill="#2f2f2f" fill-rule="evenodd"
                  d="M300.189-166.345h-1.371c.33.366.446.718.46 1.06.013.334-.014.5-.014.94h1.444c0-.578.014-.68.005-1.02-.01-.327-.185-.653-.524-.98z"/>
            <path fill="#fff" fill-rule="evenodd"
                  style="line-height:normal;text-indent:0;text-align:start;text-decoration-line:none;text-decoration-style:solid;text-decoration-color:#000;text-transform:none;block-progression:tb;isolation:auto;mix-blend-mode:normal"
                  d="M288-169.628c-.145.146-.611.306-.611.306s.468.163.612.306c.143.144.306.607.306.607s.162-.463.306-.607c.144-.143.612-.306.612-.306s-.466-.16-.612-.306c-.146-.146-.306-.626-.306-.626s-.16.48-.306.626z"
                  color="#000" font-family="sans-serif" font-weight="400" overflow="visible"/>
        </g>
    </svg>
    <svg width="32" height="32" viewBox="0 0 32 32" id="knight_W" y="160" xmlns="http://www.w3.org/2000/svg">
        <defs>
            <filter id="fa" width="1.028" height="1.036" x="-.014" y="-.018" color-interpolation-filters="sRGB">
                <feGaussianBlur stdDeviation=".015"/>
            </filter>
            <filter id="fb" width="1.058" height="1.036" x="-.029" y="-.018" color-interpolation-filters="sRGB">
                <feGaussianBlur stdDeviation=".015"/>
            </filter>
        </defs>
        <g transform="translate(-278.36 235.918)">
            <path fill="#92a3b3" d="M298.369-232.885c4.456 3.934 6.941 12.416 5.564 19.467l-3.042.008"/>
            <path fill="#cdd7e0" fill-rule="evenodd"
                  d="M295.776-233.335c-.884 1.228-2.343 1.95-3.894 1.93-.582 1.514-2.096 2.654-3.988 3-1.42.106-2.596 1.034-2.923 2.3-.327 1.267.269 2.584 1.476 3.26 1.207.676 2.749.557 3.817-.294l-.358-.358c2.165 1.192 5.162.892 6.858-.686l-.722.59c-.985 1.275-1.048 2.31-4.657 3.219-3.609.909-4.972 4.818-4.244 7.986l1.757-.005v2.983h9.003l-.001-3.006 2.161-.003c2.83-6.198 2.34-13.677-1.163-18.985"/>
            <path fill="none" stroke="#12141a" stroke-linecap="round" stroke-linejoin="round"
                  d="M288.412-224.9a15.767 11.001 0 01-2.506 1.487m7.355-4.997h1"/>
            <path fill="#92a3b3" fill-rule="evenodd" stroke="#92a3b3" d="M289.4-211.418h8"/>
            <path fill="#92a3b3" fill-rule="evenodd"
                  d="M294.336-212.393l3.564-.023 2.161-.003c2.83-6.198 2.34-13.677-1.163-18.985 3.881 14.486-4.562 19.011-4.562 19.011z"/>
            <path fill="none" stroke="#12141a" stroke-linecap="round" stroke-linejoin="round"
                  d="M298.369-232.885c4.456 3.934 6.941 12.416 5.564 19.467l-3.042.008"/>
            <path fill="#dce4ea" fill-rule="evenodd"
                  d="M297.228-224.183l-1.186.59c-.985 1.275-1.048 2.31-4.657 3.219-3.609.909-4.972 4.818-4.244 7.986l3.288-.005c.97-7.525 5.97-5.525 6.799-11.79zm-1.452-9.152c-.884 1.228-2.343 1.95-3.894 1.93-.582 1.514-2.096 2.654-3.988 3-1.42.106-2.596 1.034-2.923 2.3-.148.574-.014 1.618.43 2.195.494-4.008 10.998-4.454 10.375-9.425z"/>
            <path fill="none" stroke="#12141a" stroke-linecap="round" stroke-linejoin="round"
                  d="M295.776-233.335c-.884 1.228-2.343 1.95-3.894 1.93-.582 1.514-2.096 2.654-3.988 3-1.42.106-2.596 1.034-2.923 2.3-.327 1.267.269 2.584 1.476 3.26 1.207.676 2.749.557 3.817-.294l-.358-.358c2.165 1.192 5.162.892 6.858-.686l-.722.59c-.985 1.275-1.048 2.31-4.657 3.219-3.609.909-4.972 4.791-4.244 7.959l1.757-.005v3.01h9.003l-.001-3.006 2.161-.003c2.83-6.198 2.34-13.677-1.163-18.985z"/>
            <path fill="none" stroke="#12141a" d="M288.4-212.418h10"/>
            <path fill="#cdd7e0"
                  d="M298.747-229.413c.687-2.642-.983-5.32-3.82-6.005.3.355.636 1.043.824 1.845.189.801.206 1.611.045 2.158"/>
            <path fill="#92a3b3" d="M298.747-229.132c.687-2.642-.983-5.6-3.82-6.286.3.355 2.98 2.059 3.356 5.954"/>
            <path fill="#dce4ea" d="M296.034-230.992c1.171-.434.997-2.508-.527-4.035.193.423.483 1.15.256 4.105z"/>
            <path fill="none" stroke="#12141a" stroke-linecap="round" stroke-linejoin="round"
                  d="M298.747-229.413c.687-2.642-.983-5.32-3.82-6.005.3.355.636 1.043.824 1.845.189.801.206 1.611.045 2.158"/>
            <path fill="#1b1e34" stroke="#12141a" stroke-linecap="round"
                  d="M286.025-207.412c-.902 0-1.626.615-1.626 1.38v.235l.002.026h-.002v1.353h18v-1.353h-.002l.002-.026v-.236c0-.764-.723-1.379-1.625-1.379h-14.75z"
                  color="#000" overflow="visible" style="isolation:auto;mix-blend-mode:normal"/>
            <path fill="#2e303e" fill-rule="evenodd"
                  d="M287.502-206.925h2c-.33.366-.446.718-.46 1.06-.013.334.014.5.014.94h-2.073c0-.578-.014-.68-.005-1.02.01-.327.185-.653.524-.98z"/>
            <rect width="13.832" height="3" x="286.517" y="-210.412" fill="#cdd7e0" stroke="#12141a" rx="1.5" ry="1.5"/>
            <path fill="#fff" fill-rule="evenodd"
                  d="M288.488-209.912h2c-.642.711-.587 1.374 0 2h-2c-.706-.667-.693-1.333 0-2z" filter="url(#fa)"
                  opacity=".35"/>
            <path fill="#fff" fill-rule="evenodd"
                  d="M291.204-209.912h.713c-.641.711-.586 1.374 0 2h-.712c-.706-.667-.693-1.333 0-2z" filter="url(#fb)"
                  opacity=".35"/>
            <path fill="#24273b" fill-rule="evenodd"
                  d="M290.251-206.925h.777c-.33.366-.446.718-.46 1.06-.013.334.014.5.014.94h-.85c0-.578-.014-.68-.005-1.02.01-.327.185-.653.524-.98z"/>
            <path fill="#92a3b3" fill-rule="evenodd"
                  d="M298.575-209.912h-1.1c.641.711.586 1.374 0 2h1.1c.706-.667.693-1.333 0-2z"/>
            <path fill="#16192b" fill-rule="evenodd"
                  d="M300.189-206.925h-1.371c.33.366.446.718.46 1.06.013.334-.014.5-.014.94h1.444c0-.578.014-.68.005-1.02-.01-.327-.185-.653-.524-.98z"/>
            <path fill="#fff" fill-rule="evenodd"
                  d="M288-210.208c-.145.146-.611.306-.611.306s.468.163.612.306c.143.144.306.607.306.607s.162-.463.306-.607c.144-.143.612-.306.612-.306s-.466-.16-.612-.306c-.146-.146-.306-.626-.306-.626s-.16.48-.306.626z"
                  color="#000" font-family="sans-serif" font-weight="400" overflow="visible"
                  style="line-height:normal;text-indent:0;text-align:start;text-decoration-line:none;text-decoration-style:solid;text-decoration-color:#000;text-transform:none;block-progression:tb;isolation:auto;mix-blend-mode:normal"/>
        </g>
    </svg>
    <svg width="32" height="32" viewBox="0 0 32 32" id="pawn_B" y="192" xmlns="http://www.w3.org/2000/svg">
        <g transform="translate(-257.794 192.838)">
            <path fill="#1a1a1a" fill-rule="evenodd"
                  d="M275.901-182.818c-.058 4.89.385 8.996 1.432 12.927h-7.078c1.047-3.93 1.467-8.037 1.41-12.927z"/>
            <path fill="#0f1211" fill-rule="evenodd"
                  d="M275.697-182.262c-.056 4.687.375 8.623 1.397 12.391h-6.906c4.322-1.158 5.51-1.559 5.51-12.39z"/>
            <path fill="#0a0a0a" stroke="#000" stroke-linecap="round" style="isolation:auto;mix-blend-mode:normal"
                  d="M267.649-166.832c-.752 0-1.355.615-1.355 1.38v.235l.002.026h-.002v1.353h15v-1.353h-.002l.002-.026v-.236c0-.764-.603-1.379-1.354-1.379h-12.291z"
                  color="#000" overflow="visible"/>
            <rect width="5" height="1" x="271.294" y="-185.317" fill="#f49d3b" rx="0" ry="0"/>
            <rect width="7" height="2" x="270.294" y="-184.817" fill="#333" stroke="#000" rx="1" ry="1"/>
            <path fill="#2f2f2f" fill-rule="evenodd"
                  d="M268.321-166.345h2c-.33.366-.446.718-.46 1.06-.013.334.014.5.014.94h-2.073c0-.578-.014-.68-.005-1.02.01-.327.185-.653.524-.98z"/>
            <rect width="11" height="3" x="268.294" y="-169.832" fill="#333" stroke="#000" rx="1.193" ry="1.5"/>
            <path fill="#fff" fill-rule="evenodd"
                  d="M270.318-169.332h2c-.641.711-.586 1.374 0 2h-2c-.705-.667-.692-1.333 0-2zm1.738-14.985h1c-.32.355-.293.687 0 1h-1c-.352-.333-.346-.667 0-1zm.98 14.985h.712c-.641.711-.586 1.374 0 2h-.712c-.706-.667-.693-1.333 0-2z"
                  opacity=".11"/>
            <path fill="#2f2f2f" fill-rule="evenodd"
                  d="M271.07-166.345h.777c-.33.366-.447.718-.46 1.06-.013.334.014.5.014.94h-.85c0-.578-.014-.68-.005-1.02.01-.327.185-.653.524-.98z"/>
            <path fill="#0f1211" fill-rule="evenodd"
                  d="M277.27-169.332h-1.101c.642.711.586 1.374 0 2h1.1c.706-.667.693-1.333 0-2z"/>
            <path fill="#2f2f2f" fill-rule="evenodd"
                  d="M278.267-166.345h-1.37c.329.366.446.718.459 1.06.013.334-.014.5-.014.94h1.444c0-.578.014-.68.005-1.02-.009-.327-.185-.653-.524-.98z"/>
            <circle cx="273.794" cy="-187.338" r="2.5" fill="#1a1a1a"/>
            <path fill="#4d4d4d" fill-rule="evenodd"
                  d="M272.544-185.338h1c-.676-1.101-.723-2.747 0-4-1.011 1.012-1.625 2.917-1 4z" opacity=".42"/>
            <path fill="#0f1211" fill-rule="evenodd"
                  style="line-height:normal;text-indent:0;text-align:start;text-decoration-line:none;text-decoration-style:solid;text-decoration-color:#000;text-transform:none;block-progression:tb;isolation:auto;mix-blend-mode:normal"
                  d="M271.826-182.31v1h3.967v-1h-3.967z" color="#000" font-family="sans-serif" font-weight="400"
                  overflow="visible"/>
            <path fill="none" stroke="#4d4d4d" d="M271.255-169.891c1.048-3.93 1.468-8.037 1.41-12.927" opacity=".421"/>
            <path fill="none" stroke="#000"
                  d="M275.901-182.818c-.058 4.89.385 8.996 1.432 12.927h-7.078c1.047-3.93 1.467-8.037 1.41-12.927z"/>
            <circle cx="273.794" cy="-187.338" r="2.5" fill="none" stroke="#000" stroke-linecap="round"
                    stroke-linejoin="round"/>
            <path fill="#0f1211" fill-rule="evenodd"
                  d="M275.544-184.317h-1c.321.355.293.687 0 1h1c.353-.333.346-.667 0-1z"/>
            <path fill="#fff" fill-rule="evenodd"
                  d="M271.807-184.627c-.146.146-.612.307-.612.307s.468.162.612.306c.144.143.306.606.306.606s.163-.463.306-.606c.144-.144.612-.306.612-.306s-.466-.16-.612-.307c-.146-.146-.306-.626-.306-.626s-.16.48-.306.626z"
                  color="#000" font-family="sans-serif" font-weight="400" overflow="visible"
                  style="line-height:normal;text-indent:0;text-align:start;text-decoration-line:none;text-decoration-style:solid;text-decoration-color:#000;text-transform:none;block-progression:tb;isolation:auto;mix-blend-mode:normal"/>
        </g>
    </svg>
    <svg width="32" height="32" viewBox="0 0 32 32" id="pawn_W" y="224" xmlns="http://www.w3.org/2000/svg">
        <g transform="translate(-257.794 233.418)">
            <path fill="#cdd7e0" fill-rule="evenodd"
                  d="M275.901-223.398c-.058 4.89.385 8.996 1.432 12.927h-7.078c1.047-3.93 1.467-8.037 1.41-12.927z"/>
            <path fill="#92a3b3" fill-rule="evenodd"
                  d="M275.697-222.842c-.056 4.687.375 8.623 1.397 12.391h-6.906c4.322-1.158 5.51-1.559 5.51-12.39z"/>
            <path fill="#1b1e34" stroke="#12141a" stroke-linecap="round"
                  d="M267.649-207.412c-.752 0-1.355.615-1.355 1.38v.235l.002.026h-.002v1.353h15v-1.353h-.002l.002-.026v-.236c0-.764-.603-1.379-1.354-1.379h-12.291z"
                  color="#000" overflow="visible" style="isolation:auto;mix-blend-mode:normal"/>
            <rect width="5" height="1" x="271.294" y="-225.897" fill="#f49d3b" rx="0" ry="0"/>
            <rect width="7" height="2" x="270.294" y="-225.397" fill="#cdd7e0" stroke="#12141a" rx="1" ry="1"/>
            <path fill="#2e303e" fill-rule="evenodd"
                  d="M268.321-206.925h2c-.33.366-.446.718-.46 1.06-.013.334.014.5.014.94h-2.073c0-.578-.014-.68-.005-1.02.01-.327.185-.653.524-.98z"/>
            <rect width="11" height="3" x="268.294" y="-210.412" fill="#cdd7e0" stroke="#12141a" rx="1.193" ry="1.5"/>
            <path fill="#fff" fill-rule="evenodd"
                  d="M270.318-209.912h2c-.641.711-.586 1.374 0 2h-2c-.705-.667-.692-1.333 0-2zm1.738-14.985h1c-.32.355-.293.687 0 1h-1c-.352-.333-.346-.667 0-1zm.98 14.985h.712c-.641.711-.586 1.374 0 2h-.712c-.706-.667-.693-1.333 0-2z"
                  opacity=".35"/>
            <path fill="#24273b" fill-rule="evenodd"
                  d="M271.07-206.925h.777c-.33.366-.447.718-.46 1.06-.013.334.014.5.014.94h-.85c0-.578-.014-.68-.005-1.02.01-.327.185-.653.524-.98z"/>
            <path fill="#92a3b3" fill-rule="evenodd"
                  d="M277.27-209.912h-1.101c.642.711.586 1.374 0 2h1.1c.706-.667.693-1.333 0-2z"/>
            <path fill="#16192b" fill-rule="evenodd"
                  d="M278.267-206.925h-1.37c.329.366.446.718.459 1.06.013.334-.014.5-.014.94h1.444c0-.578.014-.68.005-1.02-.009-.327-.185-.653-.524-.98z"/>
            <circle cx="273.794" cy="-227.918" r="2.5" fill="#cdd7e0"/>
            <path fill="#e1e7f0" fill-rule="evenodd"
                  d="M272.544-225.918h1c-.676-1.101-.723-2.747 0-4-1.011 1.012-1.625 2.917-1 4z"/>
            <path fill="#92a3b3" fill-rule="evenodd" stroke="#92a3b3" d="M271.826-222.39h3.966"/>
            <path fill="none" stroke="#dce4ea" d="M271.255-210.471c1.048-3.93 1.468-8.037 1.41-12.927" opacity=".6"/>
            <path fill="none" stroke="#12141a"
                  d="M275.901-223.398c-.058 4.89.385 8.996 1.432 12.927h-7.078c1.047-3.93 1.467-8.037 1.41-12.927z"/>
            <circle cx="273.794" cy="-227.918" r="2.5" fill="none" stroke="#12141a" stroke-linecap="round"
                    stroke-linejoin="round"/>
            <path fill="#92a3b3" fill-rule="evenodd"
                  d="M275.544-224.897h-1c.321.355.293.687 0 1h1c.353-.333.346-.667 0-1z"/>
            <path fill="#fff" fill-rule="evenodd"
                  style="line-height:normal;text-indent:0;text-align:start;text-decoration-line:none;text-decoration-style:solid;text-decoration-color:#000;text-transform:none;block-progression:tb;isolation:auto;mix-blend-mode:normal"
                  d="M271.807-225.207c-.146.146-.612.307-.612.307s.468.162.612.306c.144.143.306.606.306.606s.163-.463.306-.606c.144-.144.612-.306.612-.306s-.466-.16-.612-.307c-.146-.146-.306-.626-.306-.626s-.16.48-.306.626z"
                  color="#000" font-family="sans-serif" font-weight="400" overflow="visible"/>
        </g>
    </svg>
    <svg width="32" height="32" viewBox="0 0 32 32" id="queen_B" y="256" xmlns="http://www.w3.org/2000/svg">
        <g transform="translate(-194.949 195.336)">
            <rect width="6" height="3.5" x="207.949" y="-192.835" fill="#1a1a1a" stroke="#000" rx="1.742" ry="1.75"/>
            <path fill="#1a1a1a" fill-rule="evenodd"
                  d="M213.952-188.929c-.082 6.793.544 13.597 2.025 19.058h-10.01c1.482-5.46 2.075-12.265 1.994-19.058z"/>
            <path fill="#0f1211" fill-rule="evenodd"
                  d="M213.952-187.83c-.082 6.794.544 12.498 2.025 17.959h-10.01c6.265-1.679 7.985-2.259 7.985-17.958z"/>
            <path fill="#0a0a0a" stroke="#000" stroke-linecap="round"
                  d="M203.574-166.832c-.902 0-1.625.615-1.625 1.38v.235l.002.026h-.002v1.353h18v-1.353h-.002l.002-.026v-.236c0-.764-.724-1.379-1.626-1.379h-14.749z"
                  color="#000" overflow="visible" style="isolation:auto;mix-blend-mode:normal"/>
            <rect width="5.629" height="1" x="208.134" y="-183.335" fill="#0f1211" rx="0" ry="0"/>
            <path fill="#4d4d4d" fill-rule="evenodd" stroke="#4d4d4d"
                  d="M206.99-169.871c1.482-5.46 1.957-11.464 1.867-18.958" opacity=".42"/>
            <path fill="#2f2f2f" fill-rule="evenodd"
                  d="M205.051-166.345h2c-.33.366-.446.718-.46 1.06-.013.334.014.5.014.94h-2.073c0-.578-.014-.68-.005-1.02.01-.327.185-.653.524-.98z"/>
            <rect width="13.832" height="3" x="204.066" y="-169.832" fill="#333" stroke="#000" rx="1.5" ry="1.5"/>
            <path fill="#fff" fill-rule="evenodd"
                  d="M206.037-169.332h2c-.642.711-.587 1.374 0 2h-2c-.706-.667-.693-1.333 0-2zm2.717 0h.712c-.641.711-.586 1.374 0 2h-.712c-.706-.667-.693-1.333 0-2z"
                  opacity=".109"/>
            <path fill="#2f2f2f" fill-rule="evenodd"
                  d="M207.8-166.345h.777c-.33.366-.446.718-.46 1.06-.013.334.014.5.014.94h-.85c0-.578-.014-.68-.005-1.02.01-.327.185-.653.524-.98z"/>
            <path fill="#0f1211" fill-rule="evenodd"
                  d="M216.124-169.332h-1.1c.641.711.586 1.374 0 2h1.1c.706-.667.693-1.333 0-2z"/>
            <path fill="#2f2f2f" fill-rule="evenodd"
                  d="M217.738-166.345h-1.371c.33.366.446.718.46 1.06.013.334-.014.5-.014.94h1.444c0-.578.014-.68.005-1.02-.01-.327-.185-.653-.524-.98z"/>
            <circle cx="210.962" cy="-193.834" r="1.001" fill="#1a1a1a" stroke="#000" stroke-linecap="round"
                    stroke-linejoin="round"/>
            <rect width="10" height="2" x="205.949" y="-190.835" fill="#333" stroke="#000" rx="1.13" ry="1"/>
            <path fill="#fff" fill-rule="evenodd"
                  d="M208.46-190.335h1c-.32.356-.292.687 0 1h-1c-.352-.333-.345-.666 0-1z" opacity=".11"/>
            <path fill="none" stroke="#000"
                  d="M213.952-189.029c0 7.694.544 13.697 2.025 19.158h-10.01c1.482-5.46 2.086-11.464 1.994-19.158"/>
            <rect width="10" height="2" x="205.949" y="-185.85" fill="#333" stroke="#000" rx="1.13" ry="1"/>
            <path fill="#fff" fill-rule="evenodd"
                  d="M208.46-185.35h1c-.32.356-.292.687 0 1h-1c-.352-.333-.345-.666 0-1z" opacity=".11"/>
            <path fill="#1a1a1a" fill-rule="evenodd" d="M206.949-188.835h8c-.5.5-.5 2.5 0 3h-8c.5-.5.5-2.5 0-3z"/>
            <rect width="7" height="1" x="207.449" y="-188.323" fill="#0f1211" rx="0" ry="0"/>
            <path fill="#4d4d4d" fill-rule="evenodd" stroke="#2f2f2f" d="M208.802-185.835c.5-.5.5-2.5 0-3"
                  opacity=".421"/>
            <path fill="none" stroke="#000" d="M206.949-188.835h8c-.5.5-.5 2.5 0 3h-8c.5-.5.5-2.5 0-3z"/>
            <path fill="#2f2f2f" fill-rule="evenodd"
                  d="M210.442-191.335h-.977c0-.374.308-1 1.484-1-.598.16-.507.526-.507 1z"/>
            <path fill="#0f1211" fill-rule="evenodd"
                  d="M214.186-190.335h-1c.321.356.294.687 0 1h1c.353-.333.347-.666 0-1zm0 4.985h-1c.321.356.294.687 0 1h1c.353-.333.347-.666 0-1z"/>
            <path fill="#fff" fill-rule="evenodd"
                  style="line-height:normal;text-indent:0;text-align:start;text-decoration-line:none;text-decoration-style:solid;text-decoration-color:#000;text-transform:none;block-progression:tb;isolation:auto;mix-blend-mode:normal"
                  d="M207.939-190.65c-.146.146-.612.306-.612.306s.468.162.612.306c.143.143.306.606.306.606s.162-.463.306-.606c.144-.144.612-.306.612-.306s-.466-.16-.612-.306c-.146-.146-.306-.627-.306-.627s-.16.48-.306.627z"
                  color="#000" font-family="sans-serif" font-weight="400" overflow="visible"/>
        </g>
    </svg>
    <svg width="32" height="32" viewBox="0 0 32 32" id="queen_W" y="288" xmlns="http://www.w3.org/2000/svg">
        <g transform="translate(-194.949 235.916)">
            <rect width="6" height="3.5" x="207.949" y="-233.415" fill="#cdd7e0" stroke="#12141a" rx="1.742" ry="1.75"/>
            <path fill="#cdd7e0" fill-rule="evenodd"
                  d="M213.952-229.509c-.082 6.793.544 13.597 2.025 19.058h-10.01c1.482-5.46 2.075-12.265 1.994-19.058z"/>
            <path fill="#92a3b3" fill-rule="evenodd"
                  d="M213.952-228.41c-.082 6.794.544 12.498 2.025 17.959h-10.01c6.265-1.679 7.985-2.259 7.985-17.958z"/>
            <path fill="#1b1e34" stroke="#12141a" stroke-linecap="round" style="isolation:auto;mix-blend-mode:normal"
                  d="M203.574-207.412c-.902 0-1.625.615-1.625 1.38v.235l.002.026h-.002v1.353h18v-1.353h-.002l.002-.026v-.236c0-.764-.724-1.379-1.626-1.379h-14.749z"
                  color="#000" overflow="visible"/>
            <rect width="5.629" height="1" x="208.134" y="-223.915" fill="#92a3b3" rx="0" ry="0"/>
            <path fill="none" stroke="#dce4ea" d="M206.99-210.451c1.482-5.46 1.957-11.464 1.867-18.958" opacity=".6"/>
            <path fill="#2e303e" fill-rule="evenodd"
                  d="M205.051-206.925h2c-.33.366-.446.718-.46 1.06-.013.334.014.5.014.94h-2.073c0-.578-.014-.68-.005-1.02.01-.327.185-.653.524-.98z"/>
            <rect width="13.832" height="3" x="204.066" y="-210.412" fill="#cdd7e0" stroke="#12141a" rx="1.5" ry="1.5"/>
            <path fill="#fff" fill-rule="evenodd"
                  d="M206.037-209.912h2c-.642.711-.587 1.374 0 2h-2c-.706-.667-.693-1.333 0-2zm2.717 0h.712c-.641.711-.586 1.374 0 2h-.712c-.706-.667-.693-1.333 0-2z"
                  opacity=".35"/>
            <path fill="#24273b" fill-rule="evenodd"
                  d="M207.8-206.925h.777c-.33.366-.446.718-.46 1.06-.013.334.014.5.014.94h-.85c0-.578-.014-.68-.005-1.02.01-.327.185-.653.524-.98z"/>
            <path fill="#92a3b3" fill-rule="evenodd"
                  d="M216.124-209.912h-1.1c.641.711.586 1.374 0 2h1.1c.706-.667.693-1.333 0-2z"/>
            <path fill="#16192b" fill-rule="evenodd"
                  d="M217.738-206.925h-1.371c.33.366.446.718.46 1.06.013.334-.014.5-.014.94h1.444c0-.578.014-.68.005-1.02-.01-.327-.185-.653-.524-.98z"/>
            <circle cx="210.962" cy="-234.414" r="1.001" fill="#cdd7e0" stroke="#12141a" stroke-linecap="round"
                    stroke-linejoin="round"/>
            <rect width="10" height="2" x="205.949" y="-231.415" fill="#d9e3ed" stroke="#12141a" rx="1.13" ry="1"/>
            <path fill="#fff" fill-rule="evenodd"
                  d="M208.46-230.915h1c-.32.356-.292.687 0 1h-1c-.352-.333-.345-.666 0-1z" opacity=".35"/>
            <path fill="none" stroke="#12141a"
                  d="M213.952-229.609c0 7.694.544 13.697 2.025 19.158h-10.01c1.482-5.46 2.086-11.464 1.994-19.158"/>
            <rect width="10" height="2" x="205.949" y="-226.43" fill="#cdd7e0" stroke="#12141a" rx="1.13" ry="1"/>
            <path fill="#fff" fill-rule="evenodd"
                  d="M208.46-225.93h1c-.32.356-.292.687 0 1h-1c-.352-.333-.345-.666 0-1z" opacity=".35"/>
            <path fill="#cdd7e0" fill-rule="evenodd" d="M206.949-229.415h8c-.5.5-.5 2.5 0 3h-8c.5-.5.5-2.5 0-3z"/>
            <rect width="7" height="1" x="207.449" y="-228.903" fill="#92a3b3" rx="0" ry="0"/>
            <path fill="#dce4ea" fill-rule="evenodd" stroke="#cdd7e0" d="M208.802-226.415c.5-.5.5-2.5 0-3"
                  opacity=".6"/>
            <path fill="none" stroke="#12141a" d="M206.949-229.415h8c-.5.5-.5 2.5 0 3h-8c.5-.5.5-2.5 0-3z"/>
            <path fill="#dce4ea" fill-rule="evenodd"
                  d="M210.442-231.915h-.977c0-.374.308-1 1.484-1-.598.16-.507.526-.507 1z"/>
            <path fill="#92a3b3" fill-rule="evenodd"
                  d="M214.186-230.915h-1c.321.356.294.687 0 1h1c.353-.333.347-.666 0-1zm0 4.985h-1c.321.356.294.687 0 1h1c.353-.333.347-.666 0-1z"/>
            <path fill="#fff" fill-rule="evenodd"
                  d="M207.939-231.23c-.146.146-.612.306-.612.306s.468.162.612.306c.143.143.306.606.306.606s.162-.463.306-.606c.144-.144.612-.306.612-.306s-.466-.16-.612-.306c-.146-.146-.306-.627-.306-.627s-.16.48-.306.627z"
                  color="#000" font-family="sans-serif" font-weight="400" overflow="visible"
                  style="line-height:normal;text-indent:0;text-align:start;text-decoration-line:none;text-decoration-style:solid;text-decoration-color:#000;text-transform:none;block-progression:tb;isolation:auto;mix-blend-mode:normal"/>
        </g>
    </svg>
    <svg width="32" height="32" viewBox="0 0 32 32" id="rook_B" y="320" xmlns="http://www.w3.org/2000/svg">
        <g transform="translate(-215.897 195.333)">
            <path fill="#1a1a1a" fill-rule="evenodd"
                  d="M234.9-189.478c-.081 6.793.544 14.146 2.026 19.607h-10.01c1.481-5.46 2.075-12.814 1.993-19.607z"/>
            <path fill="#0f1211" fill-rule="evenodd"
                  d="M234.9-187.83c-.081 6.794.544 12.498 2.026 17.959h-10.01c6.264-1.679 7.985-2.259 7.985-17.958z"/>
            <path fill="#0a0a0a" stroke="#000" stroke-linecap="round"
                  d="M224.523-166.832c-.902 0-1.626.615-1.626 1.38v.235l.002.026h-.002v1.353h18v-1.353h-.002l.002-.026v-.236c0-.764-.724-1.379-1.625-1.379h-14.75z"
                  color="#000" overflow="visible" style="isolation:auto;mix-blend-mode:normal"/>
            <path fill="#0f1211" d="M229.006-189.338h5.782v1h-5.782zm0 4.015h5.782v1h-5.782z"/>
            <path fill="none" stroke="#4d4d4d" d="M228.022-169.871c1.481-5.46 1.948-12.665 1.866-19.458" opacity=".42"/>
            <path fill="#2f2f2f" fill-rule="evenodd"
                  d="M226-166.345h2c-.33.366-.446.718-.46 1.06-.013.334.014.5.014.94h-2.073c0-.578-.014-.68-.005-1.02.009-.327.185-.653.524-.98z"/>
            <rect width="13.832" height="3" x="225.015" y="-169.832" fill="#333" stroke="#000" rx="1.5" ry="1.5"/>
            <path fill="#fff" fill-rule="evenodd"
                  d="M226.985-169.332h2c-.642.711-.586 1.374 0 2h-2c-.705-.667-.693-1.333 0-2zm2.717 0h.713c-.642.711-.586 1.374 0 2h-.713c-.705-.667-.693-1.333 0-2z"
                  opacity=".11"/>
            <path fill="#2f2f2f" fill-rule="evenodd"
                  d="M228.749-166.345h.776c-.33.366-.446.718-.46 1.06-.013.334.014.5.014.94h-.85c0-.578-.013-.68-.004-1.02.009-.327.185-.653.524-.98z"/>
            <path fill="#0f1211" fill-rule="evenodd"
                  d="M237.073-169.332h-1.101c.642.711.586 1.374 0 2h1.101c.706-.667.693-1.333 0-2z"/>
            <path fill="#2f2f2f" fill-rule="evenodd"
                  d="M238.686-166.345h-1.37c.33.366.446.718.46 1.06.012.334-.015.5-.015.94h1.444c0-.578.014-.68.005-1.02-.009-.327-.185-.653-.524-.98z"/>
            <path fill="#1a1a1a" stroke="#000" stroke-linecap="round" stroke-linejoin="round"
                  d="M226.897-194.829h2.007v1.991h1.984v-1.99h2.035v1.99h2.018l-.013-1.99h1.984v4.996h-10.015z"/>
            <path fill="none" stroke="#000"
                  d="M234.9-189.875c-.09 7.537.544 14.543 2.026 20.004h-10.01c1.481-5.46 2.084-12.467 1.993-20.004"/>
            <rect width="10" height="2" x="226.897" y="-187.838" fill="#333" stroke="#000" rx="1.13" ry="1"/>
            <path fill="#fff" fill-rule="evenodd"
                  d="M229.41-187.338h1c-.322.356-.294.687 0 1h-1c-.353-.333-.347-.666 0-1z" opacity=".11"/>
            <path fill="#ff7a6c" fill-rule="evenodd" stroke="#2f2f2f" d="M229.897-192.338v2"/>
            <path fill="#0f1211" fill-rule="evenodd"
                  d="M235.135-187.338h-1c.32.356.293.687 0 1h1c.353-.333.346-.666 0-1z"/>
            <path fill="#fff" fill-rule="evenodd"
                  d="M228.918-187.643c-.146.146-.612.306-.612.306s.468.163.612.307c.144.143.306.606.306.606s.163-.463.306-.606c.144-.144.612-.307.612-.307s-.466-.16-.612-.306c-.146-.146-.306-.626-.306-.626s-.16.48-.306.626z"
                  color="#000" font-family="sans-serif" font-weight="400" overflow="visible"
                  style="line-height:normal;text-indent:0;text-align:start;text-decoration-line:none;text-decoration-style:solid;text-decoration-color:#000;text-transform:none;block-progression:tb;isolation:auto;mix-blend-mode:normal"/>
        </g>
    </svg>
    <svg width="32" height="32" viewBox="0 0 32 32" id="rook_W" y="352" xmlns="http://www.w3.org/2000/svg">
        <g transform="translate(-215.897 235.913)">
            <path fill="#cdd7e0" fill-rule="evenodd"
                  d="M234.9-230.058c-.081 6.793.544 14.146 2.026 19.607h-10.01c1.481-5.46 2.075-12.814 1.993-19.607z"/>
            <path fill="#92a3b3" fill-rule="evenodd"
                  d="M234.9-228.41c-.081 6.794.544 12.498 2.026 17.959h-10.01c6.264-1.679 7.985-2.259 7.985-17.958z"/>
            <path fill="#1b1e34" stroke="#12141a" stroke-linecap="round" style="isolation:auto;mix-blend-mode:normal"
                  d="M224.523-207.412c-.902 0-1.626.615-1.626 1.38v.235l.002.026h-.002v1.353h18v-1.353h-.002l.002-.026v-.236c0-.764-.724-1.379-1.625-1.379h-14.75z"
                  color="#000" overflow="visible"/>
            <rect width="5.781" height="1" x="229.006" y="-229.918" fill="#92a3b3" rx="0" ry="0"/>
            <rect width="5.781" height="1" x="229.006" y="-225.903" fill="#92a3b3" rx="0" ry="0"/>
            <path fill="none" stroke="#dce4ea" d="M228.022-210.451c1.481-5.46 1.948-12.665 1.866-19.458" opacity=".6"/>
            <path fill="#2e303e" fill-rule="evenodd"
                  d="M226-206.925h2c-.33.366-.446.718-.46 1.06-.013.334.014.5.014.94h-2.073c0-.578-.014-.68-.005-1.02.009-.327.185-.653.524-.98z"/>
            <rect width="13.832" height="3" x="225.015" y="-210.412" fill="#cdd7e0" stroke="#12141a" rx="1.5" ry="1.5"/>
            <path fill="#fff" fill-rule="evenodd"
                  d="M226.985-209.912h2c-.642.711-.586 1.374 0 2h-2c-.705-.667-.693-1.333 0-2zm2.717 0h.713c-.642.711-.586 1.374 0 2h-.713c-.705-.667-.693-1.333 0-2z"
                  opacity=".35"/>
            <path fill="#24273b" fill-rule="evenodd"
                  d="M228.749-206.925h.776c-.33.366-.446.718-.46 1.06-.013.334.014.5.014.94h-.85c0-.578-.013-.68-.004-1.02.009-.327.185-.653.524-.98z"/>
            <path fill="#92a3b3" fill-rule="evenodd"
                  d="M237.073-209.912h-1.101c.642.711.586 1.374 0 2h1.101c.706-.667.693-1.333 0-2z"/>
            <path fill="#16192b" fill-rule="evenodd"
                  d="M238.686-206.925h-1.37c.33.366.446.718.46 1.06.012.334-.015.5-.015.94h1.444c0-.578.014-.68.005-1.02-.009-.327-.185-.653-.524-.98z"/>
            <path fill="#cdd7e0" stroke="#12141a" stroke-linecap="round" stroke-linejoin="round"
                  d="M226.897-235.409h2.007v1.991h1.984v-1.99h2.035v1.99h2.018l-.013-1.99h1.984v4.996h-10.015z"/>
            <path fill="none" stroke="#12141a"
                  d="M234.9-230.456c-.09 7.538.544 14.544 2.026 20.005h-10.01c1.481-5.46 2.084-12.467 1.993-20.005"/>
            <rect width="10" height="2" x="226.897" y="-228.418" fill="#cdd7e0" stroke="#12141a" rx="1.13" ry="1"/>
            <path fill="#fff" fill-rule="evenodd"
                  d="M229.41-227.918h1c-.322.356-.294.687 0 1h-1c-.353-.333-.347-.666 0-1z" opacity=".11"/>
            <path fill="#ff7a6c" fill-rule="evenodd" stroke="#dce4ea" d="M229.897-232.918v2"/>
            <path fill="#92a3b3" fill-rule="evenodd"
                  d="M235.135-227.918h-1c.32.356.293.687 0 1h1c.353-.333.346-.666 0-1z"/>
            <path fill="#fff" fill-rule="evenodd"
                  style="line-height:normal;text-indent:0;text-align:start;text-decoration-line:none;text-decoration-style:solid;text-decoration-color:#000;text-transform:none;block-progression:tb;isolation:auto;mix-blend-mode:normal"
                  d="M228.918-228.223c-.146.146-.612.306-.612.306s.468.163.612.307c.144.143.306.606.306.606s.163-.463.306-.606c.144-.144.612-.307.612-.307s-.466-.16-.612-.306c-.146-.146-.306-.626-.306-.626s-.16.48-.306.626z"
                  color="#000" font-family="sans-serif" font-weight="400" overflow="visible"/>
        </g>
    </svg>
</svg>
